<svg width="44" height="33" viewBox="0 0 44 33" fill="none" xmlns="http://www.w3.org/2000/svg">
<g opacity="0.6">
<path d="M-3.68279e-08 1.48417C-2.74034e-08 1.26868 0.0859756 1.0531 0.257751 0.888719C0.601391 0.559878 1.1586 0.559878 1.50233 0.888719L21.9999 20.5037L42.4977 0.888721C42.8413 0.559879 43.3985 0.559879 43.7422 0.888721C44.086 1.21756 44.0859 1.75078 43.7422 2.07971L22.6223 22.2902C22.2786 22.619 21.7214 22.619 21.3777 22.2902L0.257751 2.07971C0.0859756 1.91524 -4.62524e-08 1.69966 -3.68279e-08 1.48417Z" fill="#F8F9FA"/>
<path d="M-3.71055e-08 11.5894C-2.761e-08 11.3739 0.0859794 11.1583 0.257755 10.9939C0.601395 10.6651 1.15861 10.6651 1.50233 10.9939L21.9999 30.6089L42.4977 10.9939C42.8413 10.6651 43.3985 10.6651 43.7422 10.9939C44.086 11.3228 44.0859 11.856 43.7422 12.1849L22.6223 32.3954C22.2786 32.7242 21.7214 32.7242 21.3777 32.3954L0.257755 12.1849C0.0859794 12.0205 -4.6601e-08 11.8049 -3.71055e-08 11.5894Z" fill="#F8F9FA"/>
</g>
</svg>
