<svg width="184" height="89" viewBox="0 0 184 89" fill="none" xmlns="http://www.w3.org/2000/svg">
<path d="M11.846 88.2262C10.8252 88.2262 10 87.4183 10 86.4239V1.86405C10 0.867388 10.8275 0.0617676 11.846 0.0617676C12.8668 0.0617676 13.692 0.86969 13.692 1.86405V86.4239C13.692 87.4183 12.8645 88.2262 11.846 88.2262Z" fill="white"/>
<path d="M42.4473 10.4579H47.2897V16.4195H52.7639V20.4499H47.2897V29.4958C47.2897 31.6342 48.3577 32.7022 50.4912 32.7022C51.3895 32.7022 52.1486 32.4973 52.7663 32.0853V36.3205C51.8115 36.8131 50.5761 37.0617 49.0602 37.0617C46.9809 37.0617 45.3612 36.4656 44.1966 35.2732C43.0319 34.0809 42.4496 32.4421 42.4496 30.359V10.4579H42.4473Z" fill="white"/>
<path d="M60.5564 36.5688H55.6716V16.4193H60.5564V36.5688ZM58.114 14.2993L54.6602 10.9272L58.114 7.55518L61.5678 10.9272L58.114 14.2993Z" fill="white"/>
<path d="M69.8204 25.8774V36.569H64.9355V16.4194H69.8204V19.0918C71.0275 16.9811 72.9937 15.9246 75.7166 15.9246C78.6919 15.9246 80.7854 17.1721 81.9925 19.6672C83.5084 17.1721 85.7976 15.9246 88.8577 15.9246C91.2152 15.9246 93.0541 16.6657 94.3743 18.1458C95.6946 19.6258 96.3547 21.6398 96.3547 24.1902V36.5667H91.4698V25.0948C91.4698 23.5871 91.1256 22.4086 90.4372 21.5593C89.7488 20.7099 88.7728 20.2841 87.5091 20.2841C86.1889 20.2841 85.1304 20.7721 84.3288 21.7434C83.5296 22.717 83.1147 24.0244 83.0864 25.6702V36.5667H78.2015V25.2582C78.2015 23.6953 77.8573 22.4754 77.1689 21.5984C76.4805 20.7214 75.5045 20.2818 74.2408 20.2818C72.9206 20.2818 71.855 20.7905 71.0393 21.8032C70.2283 22.8206 69.8204 24.1764 69.8204 25.8774Z" fill="white"/>
<path d="M115.18 29.9883L119.181 31.8389C118.283 33.4571 117.033 34.7323 115.433 35.6622C113.832 36.5944 111.979 37.0593 109.873 37.0593C106.728 37.0593 104.152 36.0719 102.145 34.0993C100.137 32.1244 99.1348 29.5901 99.1348 26.4919C99.1348 23.4766 100.132 20.9608 102.124 18.9468C104.119 16.9327 106.615 15.9246 109.621 15.9246C112.596 15.9246 115.055 16.9327 116.991 18.9468C118.929 20.9608 119.898 23.4766 119.898 26.4919C119.898 26.7106 119.891 26.9316 119.877 27.1503C119.862 27.3689 119.855 27.5484 119.855 27.6843C119.855 27.8224 119.855 27.9029 119.855 27.9305H103.977C104.088 29.383 104.72 30.596 105.873 31.5696C107.023 32.5433 108.372 33.029 109.916 33.029C111.18 33.029 112.205 32.7689 112.99 32.2487C113.778 31.7308 114.506 30.9758 115.18 29.9883ZM104.02 24.4779H115.055C114.914 23.136 114.324 22.0242 113.287 21.1473C112.247 20.2703 110.998 19.8306 109.539 19.8306C108.162 19.8306 106.934 20.3025 105.854 21.2485C104.772 22.1969 104.161 23.2718 104.02 24.4779Z" fill="white"/>
<path d="M122.721 7.78345H127.606V36.5669H122.721V7.78345Z" fill="white"/>
<path d="M137.416 10.5383C137.416 11.3347 137.121 12.0183 136.532 12.5938C135.942 13.1692 135.226 13.4569 134.384 13.4569C133.568 13.4569 132.868 13.1692 132.279 12.5938C131.689 12.0183 131.395 11.3324 131.395 10.5383C131.395 9.71658 131.689 9.01685 132.279 8.44141C132.868 7.86597 133.571 7.57825 134.384 7.57825C135.226 7.57825 135.942 7.86597 136.532 8.44141C137.121 9.01685 137.416 9.71658 137.416 10.5383ZM136.869 36.569H131.984V16.4193H136.869V36.569Z" fill="white"/>
<path d="M146.135 25.9602V36.569H141.25V16.4194H146.135V19.0918C147.538 16.9811 149.645 15.9246 152.453 15.9246C154.952 15.9246 156.911 16.6864 158.328 18.2056C159.745 19.7271 160.455 21.8032 160.455 24.4342V36.5644H155.57V25.3388C155.57 23.7759 155.169 22.549 154.37 21.6582C153.571 20.7675 152.439 20.3209 150.98 20.3209C149.52 20.3209 148.346 20.8273 147.462 21.8424C146.578 22.8621 146.135 24.2316 146.135 25.9602Z" fill="white"/>
<path d="M179.283 29.9883L183.284 31.8389C182.385 33.4571 181.136 34.7323 179.535 35.6622C177.934 36.5944 176.081 37.0593 173.976 37.0593C170.831 37.0593 168.254 36.0719 166.248 34.0993C164.239 32.1244 163.237 29.5901 163.237 26.4919C163.237 23.4766 164.235 20.9608 166.227 18.9468C168.221 16.9327 170.718 15.9246 173.724 15.9246C176.699 15.9246 179.158 16.9327 181.093 18.9468C183.031 20.9608 184 23.4766 184 26.4919C184 26.7106 183.993 26.9316 183.979 27.1503C183.965 27.3689 183.958 27.5484 183.958 27.6843C183.958 27.8224 183.958 27.9029 183.958 27.9305H168.08C168.191 29.383 168.822 30.596 169.975 31.5696C171.126 32.5433 172.474 33.029 174.018 33.029C175.282 33.029 176.308 32.7689 177.093 32.2487C177.878 31.7308 178.609 30.9758 179.283 29.9883ZM168.122 24.4779H179.158C179.016 23.136 178.427 22.0242 177.39 21.1473C176.35 20.2703 175.101 19.8306 173.641 19.8306C172.264 19.8306 171.036 20.3025 169.956 21.2485C168.872 22.1969 168.261 23.2718 168.122 24.4779Z" fill="white"/>
<path d="M41.0815 47.5547V56.1817H53.5742L40.4639 69.9554V77.9794H68.5376V69.3524H54.2862L67.6842 54.8812V47.5547H41.0815Z" fill="white"/>
<path d="M84.2154 47.5547H73.8115V77.9794H84.2154V47.5547Z" fill="white"/>
<path d="M108.3 47.5547H90.3066V77.9794H100.685V69.1912L108.3 69.0531C114.087 69.0531 118.779 64.2402 118.779 58.3039C118.779 52.3677 114.087 47.5547 108.3 47.5547ZM106.715 61.6162H100.685V55.5303H106.715C108.354 55.5303 109.681 56.8929 109.681 58.5732C109.681 60.2558 108.354 61.6162 106.715 61.6162Z" fill="white"/>
<path d="M139.865 47.5642H121.872V77.9889H132.25V69.2007L139.865 69.0626C145.653 69.0626 150.344 64.2497 150.344 58.3134C150.344 52.3772 145.653 47.5642 139.865 47.5642ZM138.281 61.6256H132.25V55.5398H138.281C139.919 55.5398 141.246 56.9024 141.246 58.5827C141.246 60.2653 139.919 61.6256 138.281 61.6256Z" fill="white"/>
<path d="M149.533 47.5547H161.005L165.826 55.1298L170.553 47.5639H182.096L170.768 64.2517V77.9794H160.505V64.2171L149.533 47.5547Z" fill="white"/>
<path d="M178.565 70.9634C176.566 70.9634 174.946 72.5447 174.946 74.4966C174.946 76.4485 176.566 78.0298 178.565 78.0298C180.564 78.0298 182.184 76.4485 182.184 74.4966C182.184 72.5447 180.564 70.9634 178.565 70.9634ZM178.565 77.1851C177.045 77.1851 175.812 75.9812 175.812 74.4966C175.812 73.0119 177.045 71.8081 178.565 71.8081C180.086 71.8081 181.319 73.0119 181.319 74.4966C181.319 75.9812 180.086 77.1851 178.565 77.1851Z" fill="white"/>
<path d="M179.486 75.0516C179.849 74.849 180.096 74.4554 180.096 73.9997C180.096 73.3391 179.575 72.8051 178.932 72.8051H177.036V76.1887H178.085V75.2104L178.425 75.2035L178.998 76.1864H180.099L179.486 75.0516ZM178.755 74.3703H178.085V73.6935H178.755C178.936 73.6935 179.085 73.8455 179.085 74.0319C179.085 74.2183 178.936 74.3703 178.755 74.3703Z" fill="white"/>
<path d="M21.2325 77.9994H1.96659C1.43378 77.9994 1 77.5781 1 77.0556V58.2457C1 57.7255 1.43143 57.302 1.96659 57.302H21.2325C21.7653 57.302 22.199 57.7232 22.199 58.2457V77.0556C22.1967 77.5781 21.7653 77.9994 21.2325 77.9994Z" fill="#FAD33C"/>
<path d="M11.9976 36.9771C18.6237 36.9771 23.9952 31.7327 23.9952 25.2635C23.9952 18.7942 18.6237 13.5498 11.9976 13.5498C5.37151 13.5498 0 18.7942 0 25.2635C0 31.7327 5.37151 36.9771 11.9976 36.9771Z" fill="white"/>
</svg>
