<svg width="24" height="24" viewBox="0 0 24 24" fill="none" xmlns="http://www.w3.org/2000/svg">
<path d="M20.44 0H3.56C2.61664 0.00263878 1.71267 0.378556 1.04561 1.04561C0.378556 1.71267 0.00263878 2.61664 0 3.56L0 20.44C0.00263878 21.3834 0.378556 22.2873 1.04561 22.9544C1.71267 23.6214 2.61664 23.9974 3.56 24H20.44C21.3834 23.9974 22.2873 23.6214 22.9544 22.9544C23.6214 22.2873 23.9974 21.3834 24 20.44V3.56C23.9974 2.61664 23.6214 1.71267 22.9544 1.04561C22.2873 0.378556 21.3834 0.00263878 20.44 0V0ZM22 20.44C22 20.8537 21.8356 21.2505 21.5431 21.5431C21.2505 21.8356 20.8537 22 20.44 22H3.56C3.14626 22 2.74947 21.8356 2.45691 21.5431C2.16436 21.2505 2 20.8537 2 20.44V3.56C2 3.14626 2.16436 2.74947 2.45691 2.45691C2.74947 2.16436 3.14626 2 3.56 2H20.44C20.8537 2 21.2505 2.16436 21.5431 2.45691C21.8356 2.74947 22 3.14626 22 3.56V20.44Z" fill="#6C757D"/>
<path d="M12 6C10.8133 6 9.65328 6.35189 8.66658 7.01118C7.67989 7.67047 6.91085 8.60754 6.45673 9.7039C6.0026 10.8003 5.88378 12.0067 6.11529 13.1705C6.3468 14.3344 6.91825 15.4035 7.75736 16.2426C8.59648 17.0818 9.66558 17.6532 10.8295 17.8847C11.9933 18.1162 13.1997 17.9974 14.2961 17.5433C15.3925 17.0892 16.3295 16.3201 16.9888 15.3334C17.6481 14.3467 18 13.1867 18 12C18 10.4087 17.3679 8.88258 16.2426 7.75736C15.1174 6.63214 13.5913 6 12 6ZM12 16C11.2089 16 10.4355 15.7654 9.77772 15.3259C9.11993 14.8864 8.60723 14.2616 8.30448 13.5307C8.00173 12.7998 7.92252 11.9956 8.07686 11.2196C8.2312 10.4437 8.61217 9.73098 9.17158 9.17157C9.73099 8.61216 10.4437 8.2312 11.2196 8.07686C11.9956 7.92252 12.7998 8.00173 13.5307 8.30448C14.2616 8.60723 14.8864 9.11992 15.3259 9.77772C15.7654 10.4355 16 11.2089 16 12C16 13.0609 15.5786 14.0783 14.8284 14.8284C14.0783 15.5786 13.0609 16 12 16Z" fill="#6C757D"/>
<path d="M18.5 7C19.3284 7 20 6.32843 20 5.5C20 4.67157 19.3284 4 18.5 4C17.6716 4 17 4.67157 17 5.5C17 6.32843 17.6716 7 18.5 7Z" fill="#6C757D"/>
</svg>
