<svg width="104" height="51" viewBox="0 0 104 51" fill="none" xmlns="http://www.w3.org/2000/svg">
<path d="M6.77829 50.8026C6.20154 50.8026 5.73535 50.337 5.73535 49.764V1.03852C5.73535 0.464219 6.20287 0 6.77829 0C7.35505 0 7.82124 0.465545 7.82124 1.03852V49.764C7.82124 50.337 7.35371 50.8026 6.77829 50.8026Z" fill="#ED282D"/>
<path d="M24.0264 5.97314H26.7622V9.40835H29.855V11.7308H26.7622V16.9433C26.7622 18.1754 27.3656 18.7908 28.571 18.7908C29.0785 18.7908 29.5074 18.6728 29.8564 18.4354V20.8758C29.3169 21.1597 28.619 21.3029 27.7625 21.3029C26.5877 21.3029 25.6727 20.9594 25.0147 20.2723C24.3567 19.5853 24.0277 18.641 24.0277 17.4406V5.97314H24.0264Z" fill="#ED282D"/>
<path d="M34.257 21.0187H31.4972V9.408H34.257V21.0187ZM32.8771 8.18644L30.9258 6.24336L32.8771 4.30029L34.8284 6.24336L32.8771 8.18644Z" fill="#ED282D"/>
<path d="M39.4922 14.8581V21.0189H36.7324V9.40821H39.4922V10.9481C40.1742 9.73183 41.2851 9.12305 42.8235 9.12305C44.5044 9.12305 45.6872 9.84192 46.3692 11.2797C47.2256 9.84192 48.519 9.12305 50.2478 9.12305C51.5798 9.12305 52.6187 9.55013 53.3646 10.403C54.1105 11.2558 54.4835 12.4163 54.4835 13.8859V21.0176H51.7237V14.4071C51.7237 13.5384 51.5292 12.8593 51.1403 12.3699C50.7513 11.8805 50.1999 11.6351 49.486 11.6351C48.7401 11.6351 48.142 11.9163 47.6892 12.476C47.2376 13.037 47.0032 13.7904 46.9872 14.7387V21.0176H44.2274V14.5013C44.2274 13.6007 44.0329 12.8978 43.644 12.3925C43.255 11.8871 42.7036 11.6338 41.9897 11.6338C41.2438 11.6338 40.6417 11.9269 40.1809 12.5105C39.7227 13.0967 39.4922 13.8779 39.4922 14.8581Z" fill="#ED282D"/>
<path d="M65.119 17.2269L67.3794 18.2933C66.8719 19.2257 66.166 19.9605 65.2616 20.4963C64.3572 21.0335 63.3102 21.3014 62.1208 21.3014C60.344 21.3014 58.8881 20.7324 57.7546 19.5958C56.6198 18.4578 56.0537 16.9975 56.0537 15.2122C56.0537 13.4747 56.6171 12.0251 57.7426 10.8645C58.8695 9.70398 60.28 9.12305 61.9783 9.12305C63.6592 9.12305 65.0485 9.70398 66.142 10.8645C67.2369 12.0251 67.7843 13.4747 67.7843 15.2122C67.7843 15.3382 67.7803 15.4656 67.7723 15.5916C67.7643 15.7176 67.7603 15.821 67.7603 15.8993C67.7603 15.9789 67.7603 16.0253 67.7603 16.0412H58.7896C58.8522 16.8781 59.2091 17.5771 59.8605 18.1381C60.5105 18.6992 61.2723 18.979 62.1448 18.979C62.8587 18.979 63.4381 18.8291 63.8816 18.5294C64.3265 18.231 64.7381 17.7959 65.119 17.2269ZM58.8135 14.0517H65.0484C64.9685 13.2784 64.6355 12.6378 64.0495 12.1325C63.4621 11.6272 62.7561 11.3738 61.9317 11.3738C61.1538 11.3738 60.4598 11.6457 59.8498 12.1909C59.2384 12.7373 58.8935 13.3567 58.8135 14.0517Z" fill="#ED282D"/>
<path d="M69.3789 4.43188H72.1387V21.0177H69.3789V4.43188Z" fill="#ED282D"/>
<path d="M77.6821 6.01938C77.6821 6.47829 77.5156 6.87221 77.1826 7.2038C76.8496 7.53538 76.4447 7.70117 75.9692 7.70117C75.5083 7.70117 75.1128 7.53538 74.7798 7.2038C74.4468 6.87221 74.2803 6.47697 74.2803 6.01938C74.2803 5.54588 74.4468 5.14268 74.7798 4.8111C75.1128 4.47951 75.5097 4.31372 75.9692 4.31372C76.4447 4.31372 76.8496 4.47951 77.1826 4.8111C77.5156 5.14268 77.6821 5.54588 77.6821 6.01938ZM77.3731 21.0189H74.6133V9.40817H77.3731V21.0189Z" fill="#ED282D"/>
<path d="M82.6075 14.9058V21.0189H79.8477V9.40821H82.6075V10.9481C83.4 9.73183 84.5908 9.12305 86.1771 9.12305C87.589 9.12305 88.6959 9.56206 89.4964 10.4374C90.2969 11.3141 90.6978 12.5105 90.6978 14.0265V21.0163H87.938V14.5477C87.938 13.6472 87.7115 12.9402 87.26 12.4269C86.8085 11.9136 86.1691 11.6563 85.3446 11.6563C84.5202 11.6563 83.8569 11.9481 83.3574 12.533C82.8579 13.1206 82.6075 13.9098 82.6075 14.9058Z" fill="#ED282D"/>
<path d="M101.335 17.2269L103.595 18.2933C103.088 19.2257 102.382 19.9605 101.477 20.4963C100.573 21.0335 99.5261 21.3014 98.3366 21.3014C96.5598 21.3014 95.1039 20.7324 93.9704 19.5958C92.8356 18.4578 92.2695 16.9975 92.2695 15.2122C92.2695 13.4747 92.833 12.0251 93.9585 10.8645C95.0853 9.70398 96.4959 9.12305 98.1941 9.12305C99.875 9.12305 101.264 9.70398 102.358 10.8645C103.453 12.0251 104 13.4747 104 15.2122C104 15.3382 103.996 15.4656 103.988 15.5916C103.98 15.7176 103.976 15.821 103.976 15.8993C103.976 15.9789 103.976 16.0253 103.976 16.0412H95.0054C95.068 16.8781 95.425 17.5771 96.0763 18.1381C96.7263 18.6992 97.4882 18.979 98.3606 18.979C99.0745 18.979 99.6539 18.8291 100.097 18.5294C100.541 18.231 100.954 17.7959 101.335 17.2269ZM95.0294 14.0517H101.264C101.184 13.2784 100.851 12.6378 100.265 12.1325C99.6779 11.6272 98.972 11.3738 98.1475 11.3738C97.3696 11.3738 96.6757 11.6457 96.0656 12.1909C95.4529 12.7373 95.108 13.3567 95.0294 14.0517Z" fill="#ED282D"/>
<path d="M23.2533 27.3491V32.3202H30.3113L22.9043 40.257V44.8806H38.7653V39.9095H30.7136L38.2831 31.5708V27.3491H23.2533Z" fill="#ED282D"/>
<path d="M47.6221 27.3491H41.7441V44.8806H47.6221V27.3491Z" fill="#ED282D"/>
<path d="M61.23 27.3491H51.0645V44.8806H56.9278V39.8166L61.23 39.7371C64.5 39.7371 67.1506 36.9637 67.1506 33.5431C67.1506 30.1225 64.5 27.3491 61.23 27.3491ZM60.3349 35.4517H56.9278V31.9449H60.3349C61.2606 31.9449 62.0105 32.7301 62.0105 33.6983C62.0105 34.6678 61.2606 35.4517 60.3349 35.4517Z" fill="#ED282D"/>
<path d="M79.0649 27.3545H68.8994V44.886H74.7627V39.822L79.0649 39.7424C82.3349 39.7424 84.9855 36.9691 84.9855 33.5485C84.9855 30.1278 82.3349 27.3545 79.0649 27.3545ZM78.1699 35.4571H74.7627V31.9502H78.1699C79.0956 31.9502 79.8455 32.7354 79.8455 33.7036C79.8455 34.6732 79.0956 35.4571 78.1699 35.4571Z" fill="#ED282D"/>
<path d="M84.5264 27.3491H91.0077L93.7316 31.7141L96.4021 27.3544H102.923L96.5234 36.9703V44.8806H90.7253V36.9504L84.5264 27.3491Z" fill="#ED282D"/>
<path d="M100.927 40.8379C99.7979 40.8379 98.8828 41.7491 98.8828 42.8738C98.8828 43.9985 99.7979 44.9097 100.927 44.9097C102.057 44.9097 102.972 43.9985 102.972 42.8738C102.972 41.7491 102.057 40.8379 100.927 40.8379ZM100.927 44.423C100.068 44.423 99.3716 43.7293 99.3716 42.8738C99.3716 42.0183 100.068 41.3247 100.927 41.3247C101.786 41.3247 102.483 42.0183 102.483 42.8738C102.483 43.7293 101.786 44.423 100.927 44.423Z" fill="#ED282D"/>
<path d="M101.447 43.1937C101.653 43.077 101.792 42.8502 101.792 42.5875C101.792 42.2069 101.498 41.8992 101.134 41.8992H100.063V43.8489H100.656V43.2852L100.848 43.2812L101.172 43.8476H101.794L101.447 43.1937ZM101.034 42.8011H100.656V42.4111H101.034C101.137 42.4111 101.221 42.4987 101.221 42.6061C101.221 42.7135 101.137 42.8011 101.034 42.8011Z" fill="#ED282D"/>
<path d="M12.2209 44.9095H1.33614C1.03512 44.9095 0.790039 44.6668 0.790039 44.3657V33.5269C0.790039 33.2272 1.03378 32.9832 1.33614 32.9832H12.2209C12.5219 32.9832 12.767 33.2259 12.767 33.5269V44.3657C12.7657 44.6668 12.5219 44.9095 12.2209 44.9095Z" fill="#FAD33C"/>
<path d="M6.77836 20.6339C10.522 20.6339 13.5567 17.612 13.5567 13.8842C13.5567 10.1565 10.522 7.13452 6.77836 7.13452C3.03477 7.13452 0 10.1565 0 13.8842C0 17.612 3.03477 20.6339 6.77836 20.6339Z" fill="#ED282D"/>
</svg>
